<svg id="Layer_1" data-name="Layer 1" xmlns="http://www.w3.org/2000/svg" viewBox="0 0 506.31 223.38"><defs><style>.cls-1{fill:#fff;}</style></defs><path class="cls-1" d="M691.5,331.59H472.1a19.36,19.36,0,0,1-19.36-19.36h0a19.36,19.36,0,0,1,19.36-19.36H691.5a19.36,19.36,0,0,1,19.36,19.36h0A19.36,19.36,0,0,1,691.5,331.59Z" transform="translate(-204.55 -292.87)"/><path class="cls-1" d="M691.5,423.92H323.18a19.36,19.36,0,0,1-19.36-19.36h0a19.36,19.36,0,0,1,19.36-19.36H691.5a19.36,19.36,0,0,1,19.36,19.36h0A19.36,19.36,0,0,1,691.5,423.92Z" transform="translate(-204.55 -292.87)"/><path class="cls-1" d="M691.5,516.25H223.91a19.36,19.36,0,0,1-19.36-19.36h0a19.36,19.36,0,0,1,19.36-19.36H691.5a19.36,19.36,0,0,1,19.36,19.36h0A19.36,19.36,0,0,1,691.5,516.25Z" transform="translate(-204.55 -292.87)"/></svg>